# xmcd
# 
# Track frame offsets:
#     150
#     24210
#     59605
#     81610
# 
# Disc length: 1370
# 
# Revision: 7
# Processed by: cddbd v1.5.2PL0 Copyright (c) Steve Scherf et al.
# Submitted via: fre:ac v1.0.31
# 
DISCID=2e055804
DTITLE=Metallica - Mama Said (Single Disc 1)
DYEAR=1996
DGENRE=Rock
TTITLE0=Mama Said
TTITLE1=King Nothing (Live)
TTITLE2=Whiplash (Live)
TTITLE3=Mama Said (Edit)
EXTD=
EXTT0=
EXTT1=Recorded Live At Irvine Meadows Amphitheatre, Irvine, CA 4th August 1996
EXTT2=Recorded Live At Irvine Meadows Amphitheatre, Irvine, CA 4th August 1996
EXTT3=
PLAYORDER=
